<svg xmlns="http://www.w3.org/2000/svg" xmlns:xlink="http://www.w3.org/1999/xlink" width="290" zoomAndPan="magnify" viewBox="0 0 217.5 102.749999" height="137" preserveAspectRatio="xMidYMid meet" version="1.0"><defs><g/></defs><g fill="#000000" fill-opacity="1"><g transform="translate(21.174809, 63.296001)"><g><path d="M 17.457031 0.5 C 20.25 0.5 23.042969 0.0507812 25.1875 -1.097656 L 25.1875 -7.183594 C 23.089844 -6.035156 20.796875 -5.636719 18.253906 -5.636719 C 11.371094 -5.636719 9.175781 -11.472656 9.175781 -17.457031 C 9.175781 -23.441406 11.472656 -29.277344 18.152344 -29.277344 C 20.25 -29.277344 22.644531 -28.875 24.738281 -28.078125 L 24.738281 -34.164062 C 22.792969 -34.863281 20.347656 -35.410156 17.457031 -35.410156 C 7.230469 -35.410156 2.144531 -27.582031 2.144531 -17.40625 C 2.144531 -6.980469 7.03125 0.5 17.457031 0.5 Z M 17.457031 0.5 "/></g></g></g><g fill="#000000" fill-opacity="1"><g transform="translate(48.154973, 63.296001)"><g><path d="M 13.015625 -25.984375 C 9.925781 -25.984375 6.832031 -25.285156 4.039062 -23.839844 L 4.039062 -18.601562 C 6.632812 -20 9.328125 -20.746094 11.871094 -20.746094 C 15.261719 -20.746094 16.808594 -19.050781 16.808594 -16.207031 L 16.808594 -15.859375 C 15.761719 -16.007812 14.761719 -16.058594 13.464844 -16.058594 C 6.632812 -16.058594 1.945312 -13.015625 1.945312 -7.03125 C 1.945312 -2.34375 4.738281 0.5 9.328125 0.5 C 12.867188 0.5 15.609375 -0.898438 17.503906 -3.140625 L 17.605469 -3.140625 L 17.953125 0 L 23.441406 0 L 23.441406 -16.257812 C 23.441406 -22.644531 19.898438 -25.984375 13.015625 -25.984375 Z M 12.019531 -4.1875 C 9.726562 -4.1875 8.726562 -5.535156 8.726562 -7.628906 C 8.726562 -10.625 10.824219 -12.320312 14.511719 -12.320312 C 15.359375 -12.320312 16.160156 -12.21875 16.808594 -12.121094 L 16.808594 -9.375 C 16.808594 -6.183594 14.5625 -4.1875 12.019531 -4.1875 Z M 12.019531 -4.1875 "/></g></g></g><g fill="#000000" fill-opacity="1"><g transform="translate(74.835915, 63.296001)"><g><path d="M 3.492188 0 L 10.125 0 L 10.125 -13.117188 C 10.125 -17.40625 12.320312 -20.097656 16.109375 -20.097656 C 17.257812 -20.097656 18.152344 -20 19.152344 -19.699219 L 19.152344 -25.535156 C 18.351562 -25.683594 17.65625 -25.785156 16.609375 -25.785156 C 13.414062 -25.785156 11.121094 -24.1875 9.425781 -22.195312 L 9.328125 -22.195312 L 9.027344 -25.484375 L 3.492188 -25.484375 Z M 3.492188 0 "/></g></g></g><g fill="#000000" fill-opacity="1"><g transform="translate(94.63467, 63.296001)"><g/></g></g><g fill="#000000" fill-opacity="1"><g transform="translate(105.057696, 63.296001)"><g><path d="M 22.441406 -34.910156 L 22.441406 -21.097656 L 10.625 -21.097656 L 10.625 -34.910156 L 3.742188 -34.910156 L 3.742188 0 L 10.625 0 L 10.625 -15.0625 L 22.441406 -15.0625 L 22.441406 0 L 29.324219 0 L 29.324219 -34.910156 Z M 22.441406 -34.910156 "/></g></g></g><g fill="#000000" fill-opacity="1"><g transform="translate(138.122117, 63.296001)"><g><path d="M 10.773438 0.546875 C 14.265625 0.546875 17.007812 -0.898438 19.101562 -3.191406 L 19.203125 -3.191406 L 19.5 0 L 25.035156 0 L 25.035156 -25.484375 L 18.402344 -25.484375 L 18.402344 -10.472656 C 18.402344 -7.28125 16.410156 -4.9375 13.214844 -4.9375 C 10.824219 -4.9375 9.875 -6.035156 9.875 -9.226562 L 9.875 -25.484375 L 3.242188 -25.484375 L 3.242188 -8.230469 C 3.242188 -2.09375 5.835938 0.546875 10.773438 0.546875 Z M 10.773438 0.546875 "/></g></g></g><g fill="#000000" fill-opacity="1"><g transform="translate(166.648278, 63.296001)"><g><path d="M 16.90625 0.648438 C 23.242188 0.648438 26.882812 -4.390625 26.882812 -12.769531 C 26.882812 -21.097656 23.289062 -26.132812 16.957031 -26.132812 C 13.914062 -26.132812 11.671875 -25.035156 10.125 -23.339844 L 9.976562 -23.339844 C 10.125 -24.636719 10.125 -25.683594 10.125 -26.832031 L 10.125 -36.707031 L 3.492188 -36.707031 L 3.492188 0 L 9.027344 0 L 9.328125 -3.140625 L 9.425781 -3.140625 C 11.171875 -0.796875 13.863281 0.648438 16.90625 0.648438 Z M 15.011719 -4.539062 C 11.917969 -4.539062 10.074219 -7.230469 10.074219 -12.667969 C 10.074219 -18.003906 11.820312 -20.898438 15.160156 -20.898438 C 18.304688 -20.898438 20.097656 -17.953125 20.097656 -12.71875 C 20.097656 -7.382812 18.304688 -4.539062 15.011719 -4.539062 Z M 15.011719 -4.539062 "/></g></g></g></svg>